<svg class="diagram-root" style="background: #f5f6f6" xmlns="http://www.w3.org/2000/svg" xmlns:xlink="http://www.w3.org/1999/xlink"><style>.diagram-root { font-family: "Helvetica Neue", sans-serif; font-size: 12px; } .t { overflow: visible; } .t-bg { y: 40; fill: #fff;   } .th { fill: #005aa0;   } .tht { fill: #fff; font-size: 14px;  } .tf { fill: #323c46; overflow: visible; } .tf.pk { fill: #005aa0; font-weight: bold; } .tf.fk { font-weight: bold; } .ty { fill: #adb1b5; font-weight: normal; text-anchor: end; } .r { fill: transparent; stroke: #c3c3c3; stroke-width: 1; } .l { stroke: 1; } .i { fill: #c2c7ce; stroke: #c2c7ce; } .i.ix { fill: #afb3b6; stroke: #000; } .fa { fill: transparent; overflow: visible; } .fa .bg.hover { fill: #f7f7f7; } .c { cy: 12; r: 4; stroke: #d2d2dc; fill: #d2d2dc; } .hr { fill: transparent; stroke: #323c46; stroke-opacity: 0.035; stroke-width: 13; } .dc { stroke: #fa5a3c; fill: #fa5a3c; } .x { stroke: white; stroke-width: 1; } .hl .th { fill: #1b9bff; } .hl .tht {  } .fhl .bg { fill: #e7f4ff; } .fhls .bg {  } .r.hl { stroke: #1b9bff; } .dim { opacity: 0.25; }</style><g class="drawing-wrapper" transform="translate(-21, 3) scale(1,1)"><g class="rs"><path d="M 300 361 m -1, 0 a 1,1 0 1,0 2,0 a 1,1 0 1,0 -2,0 M 300 361 m -0.5, 0 a 0.5,0.5 0 1,0 1,0 a 0.5,0.5 0 1,0 -1,0  M300 361 L300 361 288 361 M 300 367 m -1, 0 a 1,1 0 1,0 2,0 a 1,1 0 1,0 -2,0 M 300 367 m -0.5, 0 a 0.5,0.5 0 1,0 1,0 a 0.5,0.5 0 1,0 -1,0  M300 367 L300 367 293 361 300 355 M 300 355 m -1, 0 a 1,1 0 1,0 2,0 a 1,1 0 1,0 -2,0 M 300 355 m -0.5, 0 a 0.5,0.5 0 1,0 1,0 a 0.5,0.5 0 1,0 -1,0  M288 361 Q 271.54 361, 255.08 448.5 T 222.16 536 M 210.16 536 m -1, 0 a 1,1 0 1,0 2,0 a 1,1 0 1,0 -2,0 M 210.16 536 m -0.5, 0 a 0.5,0.5 0 1,0 1,0 a 0.5,0.5 0 1,0 -1,0  M210.16 536 L210.16 536 222.16 536 M216.16 542 L216.16 542 216.16 530" id="h1607168654" class="r"></path><path d="M 467.16 386 m -1, 0 a 1,1 0 1,0 2,0 a 1,1 0 1,0 -2,0 M 467.16 386 m -0.5, 0 a 0.5,0.5 0 1,0 1,0 a 0.5,0.5 0 1,0 -1,0  M467.16 386 L467.16 386 479.16 386 M 467.16 392 m -1, 0 a 1,1 0 1,0 2,0 a 1,1 0 1,0 -2,0 M 467.16 392 m -0.5, 0 a 0.5,0.5 0 1,0 1,0 a 0.5,0.5 0 1,0 -1,0  M467.16 392 L467.16 392 474.16 386 467.16 380 M 467.16 380 m -1, 0 a 1,1 0 1,0 2,0 a 1,1 0 1,0 -2,0 M 467.16 380 m -0.5, 0 a 0.5,0.5 0 1,0 1,0 a 0.5,0.5 0 1,0 -1,0  M479.16 386 Q 508.12 386, 537.08 329 T 595 272 M 607 272 m -1, 0 a 1,1 0 1,0 2,0 a 1,1 0 1,0 -2,0 M 607 272 m -0.5, 0 a 0.5,0.5 0 1,0 1,0 a 0.5,0.5 0 1,0 -1,0  M607 272 L607 272 595 272 M601 278 L601 278 601 266" id="h1139284389" class="r"></path><path d="M 298 529 m -1, 0 a 1,1 0 1,0 2,0 a 1,1 0 1,0 -2,0 M 298 529 m -0.5, 0 a 0.5,0.5 0 1,0 1,0 a 0.5,0.5 0 1,0 -1,0  M298 529 L298 529 286 529 M 298 535 m -1, 0 a 1,1 0 1,0 2,0 a 1,1 0 1,0 -2,0 M 298 535 m -0.5, 0 a 0.5,0.5 0 1,0 1,0 a 0.5,0.5 0 1,0 -1,0  M298 535 L298 535 291 529 298 523 M 298 523 m -1, 0 a 1,1 0 1,0 2,0 a 1,1 0 1,0 -2,0 M 298 523 m -0.5, 0 a 0.5,0.5 0 1,0 1,0 a 0.5,0.5 0 1,0 -1,0  M286 529 Q 270.04 529, 254.08 532.5 T 222.16 536 M 210.16 536 m -1, 0 a 1,1 0 1,0 2,0 a 1,1 0 1,0 -2,0 M 210.16 536 m -0.5, 0 a 0.5,0.5 0 1,0 1,0 a 0.5,0.5 0 1,0 -1,0  M210.16 536 L210.16 536 222.16 536 M216.16 542 L216.16 542 216.16 530" id="h1397587031" class="r"></path><path d="M 465.16 554 m -1, 0 a 1,1 0 1,0 2,0 a 1,1 0 1,0 -2,0 M 465.16 554 m -0.5, 0 a 0.5,0.5 0 1,0 1,0 a 0.5,0.5 0 1,0 -1,0  M465.16 554 L465.16 554 477.16 554 M471.16 560 L471.16 560 471.16 548 M477.16 554 Q 506.62 554, 536.08 413 T 595 272 M 607 272 m -1, 0 a 1,1 0 1,0 2,0 a 1,1 0 1,0 -2,0 M 607 272 m -0.5, 0 a 0.5,0.5 0 1,0 1,0 a 0.5,0.5 0 1,0 -1,0  M607 272 L607 272 595 272 M601 278 L601 278 601 266" id="h2286254435" class="r"></path><path d="M 354.14 193 m -1, 0 a 1,1 0 1,0 2,0 a 1,1 0 1,0 -2,0 M 354.14 193 m -0.5, 0 a 0.5,0.5 0 1,0 1,0 a 0.5,0.5 0 1,0 -1,0  M354.14 193 L354.14 193 366.14 193 M 354.14 199 m -1, 0 a 1,1 0 1,0 2,0 a 1,1 0 1,0 -2,0 M 354.14 199 m -0.5, 0 a 0.5,0.5 0 1,0 1,0 a 0.5,0.5 0 1,0 -1,0  M354.14 199 L354.14 199 361.14 193 354.14 187 M 354.14 187 m -1, 0 a 1,1 0 1,0 2,0 a 1,1 0 1,0 -2,0 M 354.14 187 m -0.5, 0 a 0.5,0.5 0 1,0 1,0 a 0.5,0.5 0 1,0 -1,0  M366.14 193 Q 423.36 193, 480.57 232.5 T 595 272 M 607 272 m -1, 0 a 1,1 0 1,0 2,0 a 1,1 0 1,0 -2,0 M 607 272 m -0.5, 0 a 0.5,0.5 0 1,0 1,0 a 0.5,0.5 0 1,0 -1,0  M607 272 L607 272 595 272 M601 278 L601 278 601 266" id="h3000826536" class="r"></path><path d="M 520.14 84 m -1, 0 a 1,1 0 1,0 2,0 a 1,1 0 1,0 -2,0 M 520.14 84 m -0.5, 0 a 0.5,0.5 0 1,0 1,0 a 0.5,0.5 0 1,0 -1,0  M520.14 84 L520.14 84 532.14 84 M526.14 90 L526.14 90 526.14 78 M532.14 84 Q 547.86 84, 563.57 178 T 595 272 M 607 272 m -1, 0 a 1,1 0 1,0 2,0 a 1,1 0 1,0 -2,0 M 607 272 m -0.5, 0 a 0.5,0.5 0 1,0 1,0 a 0.5,0.5 0 1,0 -1,0  M607 272 L607 272 595 272 M601 278 L601 278 601 266" id="h3177548053" class="r"></path></g><g class="hrs"></g><g class="ts"><svg width="167.16" height="100" x="43" y="479" id="h475896179" class="t"><rect height="40" width="167.16" class="th"></rect><text x="13" y="25" class="tht">departments</text><rect height="60" width="167.16" class="t-bg"></rect><text x="13" y="61" class="tf pk">dept_no<tspan x="154.16" class="ty">VARCHAR</tspan></text><path d="M7,14A2,2 0 0,1 5,12A2,2 0 0,1 7,10A2,2 0 0,1 9,12A2,2 0 0,1 7,14M12.65,10C11.83,7.67 9.61,6 7, 6A6, 6 0 0, 0 1, 12A6, 6 0 0, 0 7, 18C9.61, 18 11.83, 16.33 12.65, 14H17V18H21V14H23V10H12.65Z" class="i pk" transform="translate(76.37484375, 48) scale(0.65)"></path><text x="13" y="86" class="tf">dept_name<tspan x="154.16" class="ty">VARCHAR</tspan></text></svg><svg width="159.81" height="200" x="607" y="215" id="h1639608377" class="t"><rect height="40" width="159.81" class="th"></rect><text x="13" y="25" class="tht">employees</text><rect height="160" width="159.81" class="t-bg"></rect><text x="13" y="61" class="tf pk">emp_no<tspan x="146.81" class="ty">INT</tspan></text><path d="M7,14A2,2 0 0,1 5,12A2,2 0 0,1 7,10A2,2 0 0,1 9,12A2,2 0 0,1 7,14M12.65,10C11.83,7.67 9.61,6 7, 6A6, 6 0 0, 0 1, 12A6, 6 0 0, 0 7, 18C9.61, 18 11.83, 16.33 12.65, 14H17V18H21V14H23V10H12.65Z" class="i pk" transform="translate(107.479921875, 48) scale(0.65)"></path><text x="13" y="86" class="tf">birth_date<tspan x="146.81" class="ty">DATE</tspan></text><text x="13" y="111" class="tf">first_name<tspan x="146.81" class="ty">VARCHAR</tspan></text><text x="13" y="136" class="tf">last_name<tspan x="146.81" class="ty">VARCHAR</tspan></text><text x="13" y="161" class="tf">gender<tspan x="146.81" class="ty">VARCHAR(1)</tspan></text><text x="13" y="186" class="tf">hire_date<tspan x="146.81" class="ty">DATE</tspan></text></svg><svg width="167.16" height="150" x="300" y="304" id="h1090417462" class="t"><rect height="40" width="167.16" class="th"></rect><text x="13" y="25" class="tht">dept_emp</text><rect height="110" width="167.16" class="t-bg"></rect><text x="13" y="61" class="tf pk">dept_no<tspan x="154.16" class="ty">VARCHAR</tspan></text><path d="M7,14A2,2 0 0,1 5,12A2,2 0 0,1 7,10A2,2 0 0,1 9,12A2,2 0 0,1 7,14M12.65,10C11.83,7.67 9.61,6 7, 6A6, 6 0 0, 0 1, 12A6, 6 0 0, 0 7, 18C9.61, 18 11.83, 16.33 12.65, 14H17V18H21V14H23V10H12.65Z" class="i pk" transform="translate(76.37484375, 48) scale(0.65)"></path><text x="13" y="86" class="tf pk">emp_no<tspan x="154.16" class="ty">INT</tspan></text><path d="M7,14A2,2 0 0,1 5,12A2,2 0 0,1 7,10A2,2 0 0,1 9,12A2,2 0 0,1 7,14M12.65,10C11.83,7.67 9.61,6 7, 6A6, 6 0 0, 0 1, 12A6, 6 0 0, 0 7, 18C9.61, 18 11.83, 16.33 12.65, 14H17V18H21V14H23V10H12.65Z" class="i pk" transform="translate(114.829921875, 73) scale(0.65)"></path><text x="13" y="111" class="tf">from_date<tspan x="154.16" class="ty">DATE</tspan></text><text x="13" y="136" class="tf">to_date<tspan x="154.16" class="ty">DATE</tspan></text></svg><svg width="167.16" height="150" x="298" y="472" id="h1676682957" class="t"><rect height="40" width="167.16" class="th"></rect><text x="13" y="25" class="tht">dept_manager</text><rect height="110" width="167.16" class="t-bg"></rect><text x="13" y="61" class="tf pk">dept_no<tspan x="154.16" class="ty">VARCHAR</tspan></text><path d="M7,14A2,2 0 0,1 5,12A2,2 0 0,1 7,10A2,2 0 0,1 9,12A2,2 0 0,1 7,14M12.65,10C11.83,7.67 9.61,6 7, 6A6, 6 0 0, 0 1, 12A6, 6 0 0, 0 7, 18C9.61, 18 11.83, 16.33 12.65, 14H17V18H21V14H23V10H12.65Z" class="i pk" transform="translate(76.37484375, 48) scale(0.65)"></path><text x="13" y="86" class="tf pk">emp_no<tspan x="154.16" class="ty">INT</tspan></text><path d="M7,14A2,2 0 0,1 5,12A2,2 0 0,1 7,10A2,2 0 0,1 9,12A2,2 0 0,1 7,14M12.65,10C11.83,7.67 9.61,6 7, 6A6, 6 0 0, 0 1, 12A6, 6 0 0, 0 7, 18C9.61, 18 11.83, 16.33 12.65, 14H17V18H21V14H23V10H12.65Z" class="i pk" transform="translate(114.829921875, 73) scale(0.65)"></path><text x="13" y="111" class="tf">from_date<tspan x="154.16" class="ty">DATE</tspan></text><text x="13" y="136" class="tf">to_date<tspan x="154.16" class="ty">DATE</tspan></text></svg><svg width="151.14" height="150" x="203" y="136" id="h311790747" class="t"><rect height="40" width="151.14" class="th"></rect><text x="13" y="25" class="tht">titles</text><rect height="110" width="151.14" class="t-bg"></rect><text x="13" y="61" class="tf pk">emp_no<tspan x="138.14" class="ty">INT</tspan></text><path d="M7,14A2,2 0 0,1 5,12A2,2 0 0,1 7,10A2,2 0 0,1 9,12A2,2 0 0,1 7,14M12.65,10C11.83,7.67 9.61,6 7, 6A6, 6 0 0, 0 1, 12A6, 6 0 0, 0 7, 18C9.61, 18 11.83, 16.33 12.65, 14H17V18H21V14H23V10H12.65Z" class="i pk" transform="translate(98.80992187499999, 48) scale(0.65)"></path><text x="13" y="86" class="tf pk">title<tspan x="138.14" class="ty">VARCHAR</tspan></text><path d="M7,14A2,2 0 0,1 5,12A2,2 0 0,1 7,10A2,2 0 0,1 9,12A2,2 0 0,1 7,14M12.65,10C11.83,7.67 9.61,6 7, 6A6, 6 0 0, 0 1, 12A6, 6 0 0, 0 7, 18C9.61, 18 11.83, 16.33 12.65, 14H17V18H21V14H23V10H12.65Z" class="i pk" transform="translate(60.354843749999986, 73) scale(0.65)"></path><text x="13" y="111" class="tf pk">from_date<tspan x="138.14" class="ty">DATE</tspan></text><path d="M7,14A2,2 0 0,1 5,12A2,2 0 0,1 7,10A2,2 0 0,1 9,12A2,2 0 0,1 7,14M12.65,10C11.83,7.67 9.61,6 7, 6A6, 6 0 0, 0 1, 12A6, 6 0 0, 0 7, 18C9.61, 18 11.83, 16.33 12.65, 14H17V18H21V14H23V10H12.65Z" class="i pk" transform="translate(87.02671874999999, 98) scale(0.65)"></path><text x="13" y="136" class="tf">to_date<tspan x="138.14" class="ty">DATE</tspan></text></svg><svg width="131.14" height="150" x="389" y="27" id="h2472833127" class="t"><rect height="40" width="131.14" class="th"></rect><text x="13" y="25" class="tht">salaries</text><rect height="110" width="131.14" class="t-bg"></rect><text x="13" y="61" class="tf pk">emp_no<tspan x="118.13999999999999" class="ty">INT</tspan></text><path d="M7,14A2,2 0 0,1 5,12A2,2 0 0,1 7,10A2,2 0 0,1 9,12A2,2 0 0,1 7,14M12.65,10C11.83,7.67 9.61,6 7, 6A6, 6 0 0, 0 1, 12A6, 6 0 0, 0 7, 18C9.61, 18 11.83, 16.33 12.65, 14H17V18H21V14H23V10H12.65Z" class="i pk" transform="translate(78.80992187499999, 48) scale(0.65)"></path><text x="13" y="86" class="tf pk">salary<tspan x="118.13999999999999" class="ty">INT</tspan></text><path d="M7,14A2,2 0 0,1 5,12A2,2 0 0,1 7,10A2,2 0 0,1 9,12A2,2 0 0,1 7,14M12.65,10C11.83,7.67 9.61,6 7, 6A6, 6 0 0, 0 1, 12A6, 6 0 0, 0 7, 18C9.61, 18 11.83, 16.33 12.65, 14H17V18H21V14H23V10H12.65Z" class="i pk" transform="translate(78.80992187499999, 73) scale(0.65)"></path><text x="13" y="111" class="tf">from_date<tspan x="118.13999999999999" class="ty">DATE</tspan></text><text x="13" y="136" class="tf">to_date<tspan x="118.13999999999999" class="ty">DATE</tspan></text></svg></g></g><text class="qdbd-link" x="10" y="20">www.quickdatabasediagrams.com</text></svg>